<?xml version="1.0" standalone="no"?>
<!DOCTYPE svg PUBLIC "-//W3C//DTD SVG 20010904//EN"
 "http://www.w3.org/TR/2001/REC-SVG-20010904/DTD/svg10.dtd">
<svg version="1.0" xmlns="http://www.w3.org/2000/svg"
 width="690.000000pt" height="690.000000pt" viewBox="0 0 690.000000 690.000000"
 preserveAspectRatio="xMidYMid meet">

<g transform="translate(0.000000,690.000000) scale(0.100000,-0.100000)"
fill="#000000" stroke="none">
<path d="M4660 6141 c-36 -10 -107 -42 -158 -72 -72 -42 -103 -67 -135 -109
-23 -30 -69 -87 -102 -127 -80 -94 -153 -203 -190 -280 -8 -17 -19 -34 -25
-38 -12 -8 -36 -57 -54 -115 -15 -48 -47 -128 -77 -195 -10 -22 -21 -53 -25
-70 -4 -16 -10 -35 -15 -40 -4 -6 -16 -42 -27 -80 -11 -39 -25 -83 -30 -100
-6 -16 -15 -63 -21 -103 -13 -88 -15 -691 -2 -724 l9 -24 -161 -1 c-89 0 -189
-3 -222 -8 l-60 -7 -2 198 c-3 343 -11 645 -18 662 -4 10 -11 53 -15 97 -15
151 -61 325 -131 500 -11 28 -26 70 -33 95 -7 25 -22 61 -34 80 -12 19 -31 52
-42 73 -25 46 -34 57 -136 171 -44 50 -118 119 -163 154 l-83 63 -267 -3 -266
-3 -68 -33 c-37 -17 -70 -32 -73 -32 -3 0 -20 -11 -38 -25 -18 -14 -37 -25
-43 -25 -10 0 -57 -45 -127 -120 -50 -55 -155 -277 -156 -330 0 -8 -7 -28 -16
-45 -29 -53 -40 -163 -38 -375 1 -158 5 -220 18 -270 9 -36 21 -105 25 -155 6
-70 15 -103 39 -150 55 -110 79 -153 103 -187 74 -104 172 -224 219 -266 27
-23 62 -63 78 -90 16 -26 52 -69 80 -97 28 -27 52 -56 52 -64 0 -7 38 -53 85
-100 47 -48 85 -90 85 -94 0 -4 -6 -7 -14 -7 -8 0 -46 -19 -85 -42 -40 -24
-91 -54 -115 -68 -24 -14 -59 -43 -78 -66 -19 -23 -51 -56 -72 -74 -47 -42
-172 -195 -188 -232 -7 -16 -16 -28 -20 -28 -5 0 -8 -5 -8 -10 0 -10 -13 -41
-75 -175 -18 -39 -35 -96 -39 -129 -3 -32 -12 -68 -18 -80 -7 -11 -14 -32 -15
-46 -2 -14 -8 -49 -13 -79 -6 -30 -10 -134 -10 -230 0 -176 10 -236 45 -281 7
-8 15 -22 18 -30 4 -8 36 -53 72 -100 35 -47 75 -105 89 -130 13 -25 63 -82
110 -127 117 -111 227 -175 483 -279 187 -76 324 -111 513 -129 215 -20 533
-36 589 -30 25 3 197 12 382 20 309 13 348 17 475 45 77 17 186 41 244 54 68
15 124 34 160 55 30 17 67 37 83 42 15 6 27 15 27 19 0 4 10 10 23 14 12 3 38
19 56 35 19 17 43 33 54 37 35 11 147 118 147 140 0 8 4 14 8 14 13 0 69 120
95 205 14 44 35 114 47 155 13 41 29 82 36 90 7 8 21 51 31 95 15 66 18 123
18 330 0 219 -2 256 -18 295 -10 25 -22 65 -27 90 -9 47 -82 222 -103 246 -23
25 -32 40 -62 98 -30 59 -223 266 -248 266 -7 0 -28 14 -47 31 -19 17 -46 39
-59 48 -33 24 -24 42 47 89 32 21 85 67 118 102 32 35 121 127 196 203 139
141 210 229 240 302 9 22 33 79 52 126 20 47 36 93 36 102 0 8 5 17 12 19 18
6 27 118 28 376 1 245 -2 277 -42 442 -23 96 -37 124 -146 301 -80 131 -159
221 -272 312 l-64 52 -186 2 c-154 2 -196 0 -250 -16z m431 -91 c80 -56 191
-177 249 -271 33 -53 60 -101 60 -106 0 -5 9 -18 20 -28 49 -44 80 -121 98
-237 22 -147 25 -628 3 -698 -18 -61 -71 -187 -96 -230 -11 -19 -27 -47 -35
-61 -44 -77 -177 -227 -261 -295 -8 -6 -30 -31 -49 -55 -48 -60 -161 -170
-183 -178 -9 -4 -32 -19 -50 -34 -17 -15 -52 -42 -77 -60 -71 -52 -67 -125 7
-111 30 6 40 1 91 -43 31 -27 68 -56 82 -63 30 -16 184 -171 202 -203 7 -14
24 -44 37 -68 13 -24 37 -63 53 -87 37 -54 73 -142 83 -202 4 -25 17 -63 29
-85 19 -36 21 -59 24 -250 4 -226 -10 -347 -46 -409 -10 -17 -28 -65 -40 -106
-13 -41 -28 -88 -34 -105 -5 -16 -16 -52 -24 -80 -24 -86 -66 -158 -131 -222
-35 -35 -68 -63 -74 -63 -7 0 -29 -16 -50 -35 -22 -19 -44 -35 -50 -35 -5 0
-36 -18 -68 -39 -32 -22 -71 -43 -87 -47 -16 -3 -76 -21 -134 -39 -133 -42
-327 -83 -428 -90 -270 -20 -762 -33 -927 -25 -221 12 -372 27 -445 45 -30 7
-84 18 -119 25 -82 15 -389 145 -509 217 -90 53 -262 205 -262 232 0 11 -23
43 -118 166 -22 28 -54 81 -71 120 l-33 69 5 176 c6 186 15 260 41 325 8 22
15 57 16 77 0 20 4 39 9 43 5 3 17 27 27 53 24 68 81 187 107 225 40 59 174
221 208 253 75 70 251 174 293 174 14 0 30 6 36 13 63 74 64 83 12 127 -79 69
-172 161 -172 171 0 6 -29 44 -65 85 -36 41 -65 83 -65 93 0 10 -11 23 -25 29
-30 14 -126 113 -170 176 -16 23 -49 67 -72 97 -44 58 -68 98 -132 224 -33 64
-41 92 -41 135 -1 30 -5 75 -11 100 -28 124 -36 197 -38 331 -2 149 12 272 34
299 6 8 18 38 25 65 11 47 57 169 83 225 6 14 27 41 47 61 19 20 41 48 47 62
7 14 22 32 35 40 13 8 46 29 75 47 125 79 144 83 394 87 l226 5 52 -27 c29
-14 57 -37 63 -50 6 -13 23 -29 39 -35 15 -7 36 -24 45 -39 10 -14 39 -48 64
-76 63 -68 135 -180 158 -248 10 -31 24 -62 30 -69 6 -8 16 -36 22 -63 6 -28
20 -70 31 -95 12 -24 23 -54 24 -65 2 -11 13 -55 24 -99 12 -43 21 -88 21
-100 0 -12 4 -26 9 -31 12 -13 20 -112 31 -395 4 -129 12 -293 15 -364 8 -136
-2 -215 -33 -269 -14 -22 -14 -31 -4 -45 7 -9 15 -25 18 -34 8 -22 48 -23 95
-4 43 17 152 27 292 27 98 1 111 -2 153 -26 47 -28 77 -27 93 3 9 18 -2 112
-19 157 -6 15 -10 146 -10 313 1 278 11 406 38 487 6 17 17 53 25 80 21 69 37
113 57 160 33 76 62 150 77 200 9 28 21 57 28 65 7 8 16 25 19 38 4 12 12 22
17 22 5 0 9 9 9 20 0 35 182 289 208 290 6 0 12 6 12 14 0 29 109 150 165 183
31 18 62 33 68 33 7 0 17 4 23 9 5 5 34 18 64 29 49 19 74 21 216 18 151 -2
163 -4 195 -26z"/>
</g>
</svg>
